<?xml version="1.0" encoding="UTF-8" standalone="no"?>
<!DOCTYPE svg PUBLIC "-//W3C//DTD SVG 20010904//EN" "http://www.w3.org/TR/2001/REC-SVG-20010904/DTD/svg10.dtd">

<svg xmlns="http://www.w3.org/2000/svg" viewBox="0 0 1200 640">
	<defs>
		<linearGradient id="color">
				<stop offset="0" stop-color="#EB3293" />
				<stop offset="1" stop-color="#FABB52" />
		</linearGradient>
	</defs>
  <path id="locuz" fill="url(#color)" d="M 174.95,378.00 C 178.55,378.00 181.50,377.16 183.78,375.48 186.06,373.80 187.20,371.64 187.20,369.00 187.20,366.37 186.45,364.21 184.95,362.53 183.45,360.84 181.50,360.00 179.09,360.00 179.09,360.00 174.59,360.00 174.59,360.00 171.96,360.00 169.80,358.56 168.11,355.69 166.43,352.80 165.59,349.14 165.59,344.70 165.59,344.70 165.59,246.42 165.59,246.42 165.59,243.78 164.75,241.62 163.08,239.94 161.40,238.26 159.24,237.42 156.59,237.42 153.96,237.42 151.80,238.26 150.11,239.94 148.43,241.62 147.59,243.78 147.59,246.42 147.59,246.42 147.59,344.70 147.59,344.70 147.59,351.18 148.73,356.91 151.02,361.89 153.30,366.87 156.48,370.80 160.56,373.69 164.64,376.56 169.32,378.00 174.59,378.00 174.59,378.00 174.95,378.00 174.95,378.00 Z M 270.58,372.33 C 278.02,368.07 283.83,362.19 288.03,354.69 292.24,347.19 294.34,338.58 294.34,328.86 294.34,319.02 292.21,310.34 287.95,302.84 283.69,295.34 277.84,289.46 270.39,285.20 262.95,280.95 254.44,278.81 244.84,278.81 235.12,278.81 226.54,280.95 219.09,285.20 211.66,289.46 205.80,295.34 201.55,302.84 197.29,310.34 195.16,319.02 195.16,328.86 195.16,338.58 197.29,347.19 201.55,354.69 205.80,362.19 211.66,368.07 219.09,372.33 226.54,376.59 235.12,378.72 244.84,378.72 254.56,378.72 263.14,376.59 270.58,372.33 Z M 228.28,358.20 C 223.48,355.32 219.70,351.36 216.94,346.33 214.18,341.29 212.80,335.46 212.80,328.86 212.80,322.26 214.18,316.41 216.94,311.31 219.70,306.21 223.48,302.22 228.28,299.34 233.08,296.46 238.60,295.02 244.84,295.02 251.08,295.02 256.60,296.46 261.39,299.34 266.19,302.22 269.94,306.21 272.64,311.31 275.35,316.41 276.70,322.26 276.70,328.86 276.70,335.46 275.35,341.29 272.64,346.33 269.94,351.36 266.19,355.32 261.39,358.20 256.60,361.08 251.08,362.52 244.84,362.52 238.60,362.52 233.08,361.08 228.28,358.20 Z M 399.23,366.66 C 400.92,364.98 401.64,363.09 401.41,361.00 401.16,358.90 400.02,357.00 397.98,355.31 396.42,354.00 394.62,353.43 392.58,353.61 390.54,353.79 388.55,354.66 386.64,356.22 384.00,358.38 381.09,359.96 377.91,360.98 374.73,362.01 371.04,362.52 366.84,362.52 360.48,362.52 354.89,361.05 350.09,358.11 345.30,355.17 341.55,351.18 338.84,346.14 336.14,341.10 334.80,335.34 334.80,328.86 334.80,322.02 336.11,316.08 338.75,311.05 341.39,306.01 345.05,302.07 349.73,299.25 354.42,296.43 359.82,295.02 365.94,295.02 374.70,295.02 382.02,298.14 387.91,304.38 389.58,306.06 391.44,307.12 393.48,307.53 395.52,307.95 397.38,307.56 399.06,306.36 401.22,304.80 402.54,303.00 403.02,300.97 403.49,298.93 402.89,296.95 401.22,295.02 396.54,289.62 391.26,285.57 385.38,282.88 379.50,280.17 373.02,278.81 365.94,278.81 356.46,278.81 348.05,280.95 340.73,285.20 333.42,289.46 327.66,295.38 323.45,302.94 319.25,310.50 317.16,319.14 317.16,328.86 317.16,338.34 319.29,346.83 323.55,354.33 327.80,361.83 333.69,367.77 341.19,372.16 348.69,376.53 357.24,378.72 366.84,378.72 379.80,378.72 390.60,374.70 399.23,366.66 Z M 493.11,373.69 C 499.41,370.20 504.39,365.45 508.05,359.45 511.71,353.45 513.55,346.73 513.55,339.30 513.55,339.30 502.20,339.30 502.20,339.30 502.20,343.62 501.00,347.52 498.59,351.00 496.20,354.48 492.99,357.24 488.97,359.28 484.95,361.32 480.36,362.34 475.20,362.34 469.80,362.34 464.93,361.30 460.61,359.20 456.30,357.10 452.88,353.86 450.36,349.48 447.84,345.10 446.58,339.54 446.58,332.81 446.58,332.81 446.58,288.55 446.58,288.55 446.58,285.90 445.71,283.71 443.97,281.97 442.23,280.23 440.04,279.36 437.41,279.36 434.76,279.36 432.57,280.23 430.83,281.97 429.09,283.71 428.22,285.90 428.22,288.55 428.22,288.55 428.22,332.81 428.22,332.81 428.22,342.78 430.11,351.19 433.89,358.03 437.67,364.87 442.83,370.05 449.38,373.59 455.91,377.14 463.32,378.91 471.59,378.91 479.63,378.91 486.80,377.17 493.11,373.69 Z M 518.03,375.39 C 519.72,373.65 520.56,371.46 520.56,368.81 520.56,368.81 520.56,288.55 520.56,288.55 520.56,285.79 519.72,283.57 518.03,281.89 516.35,280.20 514.13,279.36 511.38,279.36 508.74,279.36 506.55,280.20 504.81,281.89 503.07,283.57 502.20,285.79 502.20,288.55 502.20,288.55 502.20,368.81 502.20,368.81 502.20,371.46 503.07,373.65 504.81,375.39 506.55,377.13 508.74,378.00 511.38,378.00 514.13,378.00 516.35,377.13 518.03,375.39 Z M 623.58,293.77 C 623.58,293.77 611.52,282.95 611.52,282.95 611.52,282.95 550.31,363.78 550.31,363.78 550.31,363.78 562.56,374.58 562.56,374.58 562.56,374.58 623.58,293.77 623.58,293.77 Z M 618.55,378.00 C 624.18,378.00 627.00,375.18 627.00,369.55 627.00,363.90 624.18,361.08 618.55,361.08 618.55,361.08 557.16,361.08 557.16,361.08 551.52,361.08 548.70,363.90 548.70,369.55 548.70,375.18 551.52,378.00 557.16,378.00 557.16,378.00 618.55,378.00 618.55,378.00 Z M 616.73,296.45 C 622.38,296.45 625.20,293.64 625.20,288.00 625.20,282.37 622.38,279.55 616.73,279.55 616.73,279.55 555.36,279.55 555.36,279.55 549.72,279.55 546.91,282.37 546.91,288.00 546.91,293.64 549.72,296.45 555.36,296.45 555.36,296.45 616.73,296.45 616.73,296.45 Z" />
<path id="dot-app" fill="#262626" d="M 673.23,367.41 C 673.23,374.97 667.83,380.00 660.81,380.00 653.80,380.00 648.39,374.97 648.39,367.41 648.39,360.20 653.80,355.17 660.81,355.17 667.83,355.17 673.23,360.20 673.23,367.41 Z M 772.59,373.41 C 779.44,369.62 784.87,364.50 788.89,358.02 792.91,351.54 794.92,344.22 794.92,336.06 794.92,336.06 799.42,328.86 799.42,328.86 799.42,319.26 797.23,310.65 792.84,303.03 788.47,295.41 782.50,289.41 774.94,285.03 767.38,280.65 758.80,278.45 749.20,278.45 739.60,278.45 730.98,280.65 723.36,285.03 715.74,289.41 709.74,295.41 705.36,303.03 700.98,310.65 698.80,319.26 698.80,328.86 698.80,338.34 700.98,346.89 705.36,354.52 709.74,362.13 715.74,368.13 723.36,372.52 730.98,376.89 739.60,379.08 749.20,379.08 757.96,379.08 765.76,377.19 772.59,373.41 Z M 729.05,363.69 C 723.05,360.15 718.30,355.35 714.81,349.30 711.33,343.23 709.59,336.42 709.59,328.86 709.59,321.18 711.33,314.31 714.81,308.25 718.30,302.19 723.05,297.39 729.05,293.86 735.05,290.32 741.77,288.55 749.20,288.55 756.77,288.55 763.52,290.32 769.45,293.86 775.39,297.39 780.07,302.19 783.48,308.25 786.91,314.31 788.62,321.18 788.62,328.86 788.62,336.42 786.91,343.23 783.48,349.30 780.07,355.35 775.39,360.15 769.45,363.69 763.52,367.23 756.77,369.00 749.20,369.00 741.77,369.00 735.05,367.23 729.05,363.69 Z M 797.98,376.47 C 798.94,375.45 799.42,374.16 799.42,372.59 799.42,372.59 799.42,328.86 799.42,328.86 799.42,328.86 792.05,328.86 792.05,328.86 792.05,328.86 788.62,339.66 788.62,339.66 788.62,339.66 788.62,372.59 788.62,372.59 788.62,374.16 789.13,375.45 790.16,376.47 791.18,377.49 792.52,378.00 794.20,378.00 795.77,378.00 797.02,377.49 797.98,376.47 Z M 835.56,418.59 C 836.52,417.57 837.00,416.28 837.00,414.72 837.00,414.72 837.00,358.56 837.00,358.56 840.84,364.80 846.21,369.78 853.11,373.50 860.00,377.22 867.77,379.08 876.42,379.08 886.02,379.08 894.62,376.89 902.25,372.52 909.88,368.13 915.88,362.13 920.25,354.52 924.62,346.89 926.81,338.34 926.81,328.86 926.81,319.26 924.62,310.65 920.25,303.03 915.88,295.41 909.88,289.41 902.25,285.03 894.62,280.65 886.02,278.45 876.42,278.45 867.05,278.45 858.59,280.62 851.03,284.94 843.48,289.26 837.51,295.12 833.12,302.50 828.75,309.88 826.44,318.30 826.20,327.78 826.20,327.78 826.20,414.72 826.20,414.72 826.20,416.28 826.71,417.57 827.73,418.59 828.75,419.61 830.04,420.12 831.59,420.12 833.28,420.12 834.60,419.61 835.56,418.59 Z M 856.27,363.69 C 850.27,360.15 845.55,355.35 842.12,349.30 838.71,343.23 837.00,336.42 837.00,328.86 837.00,321.18 838.71,314.31 842.12,308.25 845.55,302.19 850.27,297.39 856.27,293.86 862.27,290.32 868.98,288.55 876.42,288.55 883.98,288.55 890.73,290.32 896.67,293.86 902.61,297.39 907.32,302.19 910.80,308.25 914.27,314.31 916.02,321.18 916.02,328.86 916.02,336.42 914.27,343.23 910.80,349.30 907.32,355.35 902.61,360.15 896.67,363.69 890.73,367.23 883.98,369.00 876.42,369.00 868.98,369.00 862.27,367.23 856.27,363.69 Z M 963.56,418.59 C 964.52,417.57 965.00,416.28 965.00,414.72 965.00,414.72 965.00,358.56 965.00,358.56 968.84,364.80 974.21,369.78 981.11,373.50 988.00,377.22 995.77,379.08 1004.42,379.08 1014.02,379.08 1022.62,376.89 1030.25,372.52 1037.88,368.13 1043.88,362.13 1048.25,354.52 1052.62,346.89 1054.81,338.34 1054.81,328.86 1054.81,319.26 1052.62,310.65 1048.25,303.03 1043.88,295.41 1037.88,289.41 1030.25,285.03 1022.62,280.65 1014.02,278.45 1004.42,278.45 995.05,278.45 986.59,280.62 979.03,284.94 971.48,289.26 965.51,295.12 961.12,302.50 956.75,309.88 954.44,318.30 954.20,327.78 954.20,327.78 954.20,414.72 954.20,414.72 954.20,416.28 954.71,417.57 955.73,418.59 956.75,419.61 958.04,420.12 959.59,420.12 961.28,420.12 962.60,419.61 963.56,418.59 Z M 984.27,363.69 C 978.27,360.15 973.55,355.35 970.12,349.30 966.71,343.23 965.00,336.42 965.00,328.86 965.00,321.18 966.71,314.31 970.12,308.25 973.55,302.19 978.27,297.39 984.27,293.86 990.27,290.32 996.98,288.55 1004.42,288.55 1011.98,288.55 1018.73,290.32 1024.67,293.86 1030.61,297.39 1035.32,302.19 1038.80,308.25 1042.27,314.31 1044.02,321.18 1044.02,328.86 1044.02,336.42 1042.27,343.23 1038.80,349.30 1035.32,355.35 1030.61,360.15 1024.67,363.69 1018.73,367.23 1011.98,369.00 1004.42,369.00 996.98,369.00 990.27,367.23 984.27,363.69 Z" />
</svg>
