<?xml version="1.0" standalone="no"?>
<!DOCTYPE svg PUBLIC "-//W3C//DTD SVG 20010904//EN"
 "http://www.w3.org/TR/2001/REC-SVG-20010904/DTD/svg10.dtd">
<svg version="1.0" xmlns="http://www.w3.org/2000/svg"
 width="700.000000pt" height="700.000000pt" viewBox="0 0 700.000000 700.000000"
 preserveAspectRatio="xMidYMid meet">
<metadata>
Created by potrace 1.14, written by Peter Selinger 2001-2017
</metadata>
<g transform="translate(0.000000,700.000000) scale(0.100000,-0.100000)"
fill="#000000" stroke="none">
<path d="M3357 5684 c-1 -1 -38 -5 -82 -9 -81 -7 -275 -43 -356 -66 -24 -7
-46 -13 -49 -14 -15 -3 -118 -38 -135 -45 -11 -5 -54 -23 -95 -40 -333 -138
-656 -391 -887 -695 -53 -71 -163 -238 -163 -249 0 -2 -15 -30 -33 -63 -82
-145 -178 -429 -211 -624 -43 -252 -43 -508 -1 -754 84 -483 349 -956 711
-1266 82 -71 95 -82 169 -135 256 -185 629 -342 899 -378 27 -4 52 -9 55 -10
40 -24 592 -24 631 -1 3 1 25 6 50 9 238 32 565 153 768 282 29 19 57 34 62
34 6 0 10 4 10 8 0 4 13 15 29 25 38 22 142 101 194 146 50 43 214 208 242
242 81 100 105 132 162 217 67 102 176 313 217 422 31 83 82 255 90 304 4 21
8 42 11 46 2 4 7 32 11 61 3 30 8 56 10 59 8 15 18 190 18 315 -1 151 -7 239
-23 332 -6 32 -13 72 -15 88 -34 199 -159 522 -278 713 -211 340 -519 627
-858 801 -253 130 -480 199 -785 237 -46 6 -362 13 -368 8z m356 -889 c283
-51 512 -169 707 -365 104 -104 109 -110 167 -196 104 -154 183 -352 210 -526
10 -68 10 -348 0 -413 -30 -186 -109 -381 -220 -544 -66 -98 -230 -262 -328
-328 -127 -87 -265 -151 -409 -190 -75 -20 -88 -23 -202 -38 -42 -6 -233 -6
-276 0 -97 13 -122 18 -177 31 -234 60 -439 177 -610 349 -255 256 -386 571
-385 925 0 129 6 175 34 305 11 52 39 138 64 196 178 415 518 694 962 787 108
23 353 27 463 7z"/>
</g>
</svg>
